<svg width="40.000000" height="27.473145" viewBox="0 0 40 27.4731" fill="none" xmlns="http://www.w3.org/2000/svg" xmlns:xlink="http://www.w3.org/1999/xlink">
	<desc>
			Created with Pixso.
	</desc>
	<defs/>
	<path id="quotes" d="M8.78 9.99C13.6 9.99 17.52 13.9 17.52 18.73C17.52 23.55 13.6 27.47 8.78 27.47C3.95 27.47 0.03 23.55 0.03 18.73L0 17.48C0 7.82 7.82 0 17.48 0L17.48 4.99C14.14 4.99 11.01 6.29 8.65 8.65C8.19 9.1 7.78 9.58 7.41 10.09C7.85 10.02 8.31 9.99 8.78 9.99ZM31.25 9.99C36.08 9.99 40 13.9 40 18.73C40 23.55 36.08 27.47 31.25 27.47C26.43 27.47 22.51 23.55 22.51 18.73L22.47 17.48C22.47 7.82 30.3 0 39.96 0L39.96 4.99C36.62 4.99 33.48 6.29 31.13 8.65C30.67 9.1 30.26 9.58 29.88 10.09C30.33 10.02 30.79 9.99 31.25 9.99Z" fill="#5D6AFB" fill-opacity="1.000000" fill-rule="nonzero"/>
</svg>
